# xmcd
#
# Track frame offsets: 
#        150
#        21946
#        33459
#
# Disc length: 755 seconds
#
# Revision: 0
# Processed by: cddbd v1.5.2PL0 Copyright (c) Steve Scherf et al.
# Submitted via: ExactAudioCopy v1.0b3
#
DISCID=1d02f103
DTITLE=Adolphson and Falk - Tyngdlös
DYEAR=2007
DGENRE=Pop
TTITLE0=Tyngdlös (Akustisk version)
TTITLE1=Att vara i tyngdlöshet (Christer Fuglesang)
TTITLE2=Vidare (Akustisk version)
EXTD=
EXTT0=
EXTT1=
EXTT2=
PLAYORDER=
